HIERARCHY
ROOT Hips
{
	OFFSET 0.000000 0.000000 0.000000
	CHANNELS 6 Xposition Yposition Zposition Xrotation Yrotation Zrotation
	JOINT LeftUpLeg_virtual
	{
		OFFSET 0.000000 0.000000 0.000000
		CHANNELS 3 Xrotation Yrotation Zrotation
		JOINT LeftUpLeg
		{
			OFFSET 15.427100 -6.655098 0.678600
			CHANNELS 3 Xrotation Yrotation Zrotation
			JOINT LeftLeg
			{
				OFFSET 4.081073 -39.591068 13.024000
				CHANNELS 3 Xrotation Yrotation Zrotation
				JOINT LeftFoot
				{
					OFFSET -4.081074 -37.707932 -15.979700
					CHANNELS 3 Xrotation Yrotation Zrotation
					JOINT LeftToeBase
					{
						OFFSET 5.346399 -15.068900 20.645000
						CHANNELS 3 Xrotation Yrotation Zrotation
						JOINT LeftToe_End
						{
							OFFSET 2.754700 0.931300 11.300900
							CHANNELS 3 Xrotation Yrotation Zrotation
							End Site
							{
								OFFSET 0 0 0
							}
						}
					}
				}
			}
		}
	}
	JOINT RightUpLeg_virtual
	{
		OFFSET 0.000000 0.000000 0.000000
		CHANNELS 3 Xrotation Yrotation Zrotation
		JOINT RightUpLeg
		{
			OFFSET -15.569500 -6.655098 0.678600
			CHANNELS 3 Xrotation Yrotation Zrotation
			JOINT RightLeg
			{
				OFFSET -4.081825 -39.591045 13.023800
				CHANNELS 3 Xrotation Yrotation Zrotation
				JOINT RightFoot
				{
					OFFSET 4.081824 -37.707954 -15.979600
					CHANNELS 3 Xrotation Yrotation Zrotation
					JOINT RightToeBase
					{
						OFFSET -5.346400 -15.068900 20.645000
						CHANNELS 3 Xrotation Yrotation Zrotation
						JOINT RightToe_End
						{
							OFFSET -2.754700 0.931300 11.300900
							CHANNELS 3 Xrotation Yrotation Zrotation
							End Site
							{
								OFFSET 0 0 0
							}
						}
					}
				}
			}
		}
	}
	JOINT Spine_virtual
	{
		OFFSET 0.000000 0.000000 0.000000
		CHANNELS 3 Xrotation Yrotation Zrotation
		JOINT Spine
		{
			OFFSET -0.279200 12.230698 -2.892100
			CHANNELS 3 Xrotation Yrotation Zrotation
			JOINT Spine1
			{
				OFFSET -0.232667 10.192268 -1.242267
				CHANNELS 3 Xrotation Yrotation Zrotation
				JOINT Spine1_split
				{
					OFFSET -0.232667 10.192268 -1.242267
					CHANNELS 3 Xrotation Yrotation Zrotation
					JOINT Spine2
					{
						OFFSET -0.232667 10.192268 -1.242267
						CHANNELS 3 Xrotation Yrotation Zrotation
						JOINT Neck_virtual
						{
							OFFSET 0.000000 0.000000 0.000000
							CHANNELS 3 Xrotation Yrotation Zrotation
							JOINT Neck
							{
								OFFSET -0.418800 17.814194 8.416900
								CHANNELS 3 Xrotation Yrotation Zrotation
								JOINT Head
								{
									OFFSET 0.000000 7.031097 3.806800
									CHANNELS 3 Xrotation Yrotation Zrotation
									JOINT HeadTop_End
									{
										OFFSET 0.000000 24.646606 12.978600
										CHANNELS 3 Xrotation Yrotation Zrotation
										End Site
										{
											OFFSET 0 0 0
										}
									}
								}
							}
						}
						JOINT LeftShoulder_virtual
						{
							OFFSET 0.000000 0.000000 0.000000
							CHANNELS 3 Xrotation Yrotation Zrotation
							JOINT LeftShoulder
							{
								OFFSET 8.476499 7.247704 -3.868750
								CHANNELS 3 Xrotation Yrotation Zrotation
								JOINT LeftShoulder_split
								{
									OFFSET 8.476499 7.247704 -3.868750
									CHANNELS 3 Xrotation Yrotation Zrotation
									JOINT LeftArm
									{
										OFFSET 9.308998 -2.777710 0.208600
										CHANNELS 3 Xrotation Yrotation Zrotation
										JOINT LeftForeArm
										{
											OFFSET 29.972298 0.000000 0.000000
											CHANNELS 3 Xrotation Yrotation Zrotation
											JOINT LeftHand
											{
												OFFSET 26.026505 0.000000 0.000000
												CHANNELS 3 Xrotation Yrotation Zrotation
												End Site
												{
													OFFSET 0 0 0
												}
											}
										}
									}
								}
							}
						}
						JOINT RightShoulder_virtual
						{
							OFFSET 0.000000 0.000000 0.000000
							CHANNELS 3 Xrotation Yrotation Zrotation
							JOINT RightShoulder
							{
								OFFSET -7.570500 7.247704 -3.868750
								CHANNELS 3 Xrotation Yrotation Zrotation
								JOINT RightShoulder_split
								{
									OFFSET -7.570500 7.247704 -3.868750
									CHANNELS 3 Xrotation Yrotation Zrotation
									JOINT RightArm
									{
										OFFSET -9.308998 -2.777710 0.208500
										CHANNELS 3 Xrotation Yrotation Zrotation
										JOINT RightForeArm
										{
											OFFSET -29.972300 0.000000 0.000000
											CHANNELS 3 Xrotation Yrotation Zrotation
											JOINT RightHand
											{
												OFFSET -26.026505 0.000000 0.000000
												CHANNELS 3 Xrotation Yrotation Zrotation
												End Site
												{
													OFFSET 0 0 0
												}
											}
										}
									}
								}
							}
						}
					}
				}
			}
		}
	}
}
MOTION
Frames: 9
Frame Time: 0.03333333
0.164964 79.544785 1.011715 0.000000 0.000000 0.000000 8.111897 -57.502174 9.532624 -32.241276 6.772601 27.422258 35.302550 -5.768325 -8.455177 -7.720941 -4.600656 -11.302054 3.004146 0.880152 -0.743697 0.000000 0.000000 0.000000 8.502494 -58.384334 10.090152 -29.006574 -8.460087 -31.969698 41.487115 3.631047 -6.563004 -17.751122 -0.809090 20.490166 6.600790 -0.074655 -1.185386 0.000000 0.000000 0.000000 10.398592 -54.089194 10.644548 9.281857 -1.750258 -1.535712 8.415082 0.558705 -5.841538 -0.501311 -4.458307 0.944274 0.000000 0.000000 0.000000 8.352899 0.952667 -4.704968 -15.473763 26.870364 6.168065 -3.590320 35.335646 -6.408267 0.000000 0.000000 0.000000 8.409740 1.075759 -5.515911 -5.862108 -10.379201 -1.648117 -5.885692 1.010039 -4.264131 -18.871811 -1.314251 -33.187599 3.284283 -35.140408 8.067433 0.000000 0.000000 0.000000 8.905075 1.127035 -5.333145 -2.700013 11.757036 -3.984353 1.814107 -4.140500 8.721247 -43.954248 -20.295065 33.626951 -153.085194 66.911415 151.123386 0.000000 0.000000 0.000000 
0.461615 79.440971 0.518257 0.000000 0.000000 0.000000 8.437133 -57.462279 10.054668 -31.944583 7.015750 26.701168 34.873235 -4.806270 -8.729898 -8.403949 -4.305465 -10.557195 3.031319 0.838519 -0.965284 0.000000 0.000000 0.000000 8.904184 -58.771469 10.738236 -29.102429 -8.670034 -32.272497 41.301338 3.773694 -6.466561 -17.562629 -0.814662 20.119111 5.571718 -0.245490 -0.877526 0.000000 0.000000 0.000000 10.570446 -53.898344 10.992749 9.258265 -1.559606 -1.479496 8.284040 0.554897 -5.816178 -0.447749 -4.128007 1.369069 0.000000 0.000000 0.000000 8.416974 0.899727 -4.601919 -15.385677 27.365143 6.223559 -3.000037 34.855173 -6.399721 0.000000 0.000000 0.000000 8.478676 1.043223 -5.448780 -5.835072 -10.468457 -1.943253 -6.840892 0.611128 -4.891624 -18.413437 -1.252333 -33.871024 3.228902 -36.596741 7.734296 0.000000 0.000000 0.000000 8.791036 1.036158 -5.112388 -2.080538 12.446286 -3.623939 1.301638 -4.378818 7.000848 -43.955925 -22.676363 32.840168 -150.636667 68.273492 148.743857 0.000000 0.000000 0.000000 
0.733239 79.393120 -0.059647 0.000000 0.000000 0.000000 8.585754 -57.963253 10.693494 -31.460647 7.978668 26.155964 34.370038 -3.691358 -9.117848 -9.041796 -4.127342 -10.679165 2.988428 0.754053 -0.896238 0.000000 0.000000 0.000000 8.942026 -59.494773 11.394238 -29.204677 -9.002874 -32.956872 40.988512 4.548737 -6.090428 -17.533615 -0.699372 19.884171 5.146044 -0.368029 -0.737953 0.000000 0.000000 0.000000 10.145608 -54.072203 11.098397 9.520988 -1.236197 -1.472590 8.384511 0.621910 -5.724091 -0.155178 -3.400141 1.434400 0.000000 0.000000 0.000000 8.534194 0.985895 -4.524982 -16.161735 27.618864 7.245639 -1.877421 34.282967 -6.602682 0.000000 0.000000 0.000000 8.645552 1.063015 -5.322189 -5.845692 -10.883092 -2.299496 -7.457203 -0.351847 -5.366787 -18.551880 1.040175 -34.938637 3.557517 -38.619358 6.728394 0.000000 0.000000 0.000000 8.730406 1.026689 -4.842266 -1.198330 12.911990 -2.983479 0.306393 -3.667746 5.458683 -44.534114 -24.255445 30.324691 -143.014066 69.500453 141.712669 0.000000 0.000000 0.000000 
0.898056 79.480888 -0.374722 0.000000 0.000000 0.000000 8.656710 -59.158427 11.509627 -30.889268 9.597143 25.794018 34.091018 -2.509150 -9.556462 -9.603133 -4.022715 -11.645784 3.170808 0.654669 -0.568014 0.000000 0.000000 0.000000 8.760635 -60.713442 12.068187 -29.404856 -9.232848 -33.997236 40.607998 5.868318 -5.392078 -17.357814 -0.327802 20.040023 4.971070 -0.431173 -0.790727 0.000000 0.000000 0.000000 9.374776 -54.878296 11.123447 10.027260 -0.807959 -1.498478 8.696517 0.775190 -5.524745 0.110317 -2.649793 1.238045 0.000000 0.000000 0.000000 8.710168 1.199470 -4.415925 -17.444185 27.594980 8.781204 -0.168387 33.795513 -7.163811 0.000000 0.000000 0.000000 8.894428 1.162440 -5.094425 -5.930214 -11.629747 -2.907785 -7.935053 -1.530662 -5.479483 -18.679995 5.049096 -36.006578 4.275342 -40.865575 5.234784 0.000000 0.000000 0.000000 8.808353 1.114745 -4.537842 -0.122140 13.299197 -2.227385 -0.917493 -2.734153 4.247080 -45.338966 -24.401259 26.178997 -130.849363 69.820284 130.599241 0.000000 0.000000 0.000000 
0.923476 79.621201 -0.295509 0.000000 0.000000 0.000000 8.751643 -61.287629 12.565017 -30.311854 11.612270 25.534748 34.310277 -1.229918 -9.969808 -10.251690 -3.770291 -13.066351 3.756879 0.587588 -0.161025 0.000000 0.000000 0.000000 8.407532 -62.663967 12.776037 -29.817000 -9.096137 -35.131635 40.025926 7.588176 -4.482844 -16.867938 0.336642 20.653298 4.088631 -0.434698 -0.988096 0.000000 0.000000 0.000000 8.280864 -56.539042 11.150129 10.660704 -0.307836 -1.497866 9.168623 1.014899 -5.127090 0.378362 -1.990983 1.024436 0.000000 0.000000 0.000000 8.976102 1.504877 -4.184527 -18.615483 27.406843 10.386078 2.137119 33.609059 -8.306326 0.000000 0.000000 0.000000 9.294352 1.338487 -4.669831 -6.138076 -12.713274 -3.895031 -8.111767 -2.253267 -5.534522 -18.370770 9.652929 -36.690960 5.638183 -43.362511 3.627561 0.000000 0.000000 0.000000 9.080450 1.282052 -4.142311 1.038969 13.702410 -1.645870 -1.908804 -2.354422 3.141238 -45.762090 -22.576596 20.728110 -116.093108 68.737282 117.200336 0.000000 0.000000 0.000000 
0.827933 79.784943 0.264042 0.000000 0.000000 0.000000 9.002098 -64.276028 13.881901 -29.705135 13.700753 25.285058 35.117370 0.212152 -10.329295 -11.332393 -3.205752 -14.405504 4.430062 0.596586 0.189606 0.000000 0.000000 0.000000 8.245051 -65.282607 13.698724 -30.400151 -8.379891 -36.044346 39.204108 9.449683 -3.548965 -16.368895 1.174668 21.353531 2.406657 -0.400513 -1.156055 0.000000 0.000000 0.000000 6.910416 -59.149425 11.226732 11.250885 0.217062 -1.391690 9.755729 1.309882 -4.479350 0.489347 -1.410387 0.965699 0.000000 0.000000 0.000000 9.320982 1.848827 -3.751771 -19.112565 27.324100 11.624536 4.948661 33.785708 -10.167255 0.000000 0.000000 0.000000 9.850135 1.577158 -4.003537 -6.501194 -14.082118 -5.301068 -7.771376 -2.589337 -5.467531 -17.139549 13.772979 -36.701977 8.128922 -46.265000 2.633810 0.000000 0.000000 0.000000 9.567511 1.482745 -3.616118 2.276752 14.317490 -1.515804 -2.881248 -3.112371 2.311154 -44.862370 -18.849005 14.531736 -99.852912 66.287396 102.503736 0.000000 0.000000 0.000000 
0.714378 79.882973 1.155087 0.000000 0.000000 0.000000 9.655977 -67.904470 15.621665 -29.152490 15.415766 24.977595 36.659032 1.766812 -10.641789 -12.810837 -2.327061 -15.197704 4.863192 0.686705 0.357074 0.000000 0.000000 0.000000 8.494802 -68.362667 14.948873 -31.049931 -7.014455 -36.488062 38.637564 11.126273 -2.647718 -16.067048 1.968735 21.304482 0.988265 -0.358831 -1.100686 0.000000 0.000000 0.000000 5.524692 -62.491750 11.510197 11.650018 0.720643 -1.086858 10.385627 1.582974 -3.564711 0.436753 -0.950748 1.033606 0.000000 0.000000 0.000000 9.743237 2.131933 -3.062538 -18.643573 27.471805 12.353378 7.966582 34.296904 -12.743507 0.000000 0.000000 0.000000 10.522873 1.797890 -3.105364 -6.936347 -15.720299 -6.925404 -6.514186 -2.477128 -5.111650 -15.004744 16.843120 -35.939585 12.521603 -49.348038 3.194117 0.000000 0.000000 0.000000 10.229547 1.653270 -2.884304 3.577280 15.146551 -2.178519 -3.361345 -4.639178 1.884131 -42.349420 -13.620756 8.426050 -83.794461 62.368151 87.884700 0.000000 0.000000 0.000000 
0.551716 79.757309 2.156631 0.000000 0.000000 0.000000 10.851707 -71.778116 17.897503 -28.828979 16.464798 24.630152 39.047164 3.291703 -10.970892 -14.542224 -1.342520 -15.052123 4.805346 0.820594 0.295287 0.000000 0.000000 0.000000 9.430997 -71.620913 16.782890 -31.832886 -5.092509 -36.440975 38.674000 12.439088 -1.907510 -15.886310 2.566832 20.309320 0.380569 -0.324918 -0.734570 0.000000 0.000000 0.000000 4.396293 -66.222885 12.075482 11.806179 1.142024 -0.535375 11.008693 1.728267 -2.427226 0.402070 -0.938891 1.109291 0.000000 0.000000 0.000000 10.249966 2.238557 -2.088390 -17.149242 27.948624 12.596074 11.051558 35.182291 -15.992330 0.000000 0.000000 0.000000 11.249168 1.878651 -2.040408 -7.395522 -17.489119 -8.326223 -4.303810 -1.790174 -4.317790 -12.193286 18.877507 -34.416736 19.839137 -52.525821 6.516364 0.000000 0.000000 0.000000 10.983133 1.710709 -1.938321 4.956022 16.084233 -3.799585 -3.659025 -5.977867 1.814666 -39.033759 -7.677437 3.193298 -69.945631 56.965178 75.251657 0.000000 0.000000 0.000000 
0.401380 79.351143 3.120251 0.000000 0.000000 0.000000 12.871943 -75.203347 20.866795 -28.924516 16.694637 24.315021 42.095716 4.563133 -11.376687 -16.213503 -0.529135 -14.037501 4.308270 0.963295 0.026859 0.000000 0.000000 0.000000 11.520853 -74.633088 19.559715 -32.807881 -2.795266 -36.059123 39.431731 13.460622 -1.508159 -15.710132 2.972902 19.252169 -0.077947 -0.335624 -0.215303 0.000000 0.000000 0.000000 4.144462 -69.904473 13.242581 11.755817 1.411705 0.260184 11.550668 1.596663 -1.186090 0.143758 -1.295496 1.320801 0.000000 0.000000 0.000000 10.787960 2.079778 -0.909673 -14.914813 28.710748 12.634815 14.064310 36.422872 -19.600507 0.000000 0.000000 0.000000 11.931354 1.704151 -0.913393 -7.715735 -19.179219 -9.063429 -2.130695 -0.718324 -3.659544 -9.207093 20.256779 -32.079076 30.907989 -55.159576 13.645033 0.000000 0.000000 0.000000 11.673365 1.521797 -0.832927 6.406716 16.863112 -6.344165 -4.085784 -6.581002 2.287465 -36.145829 -1.740358 -0.462816 -59.417387 50.715476 65.531123 0.000000 0.000000 0.000000 
